<?xml version="1.0" encoding="UTF-8"?><svg id="Layer_2" xmlns="http://www.w3.org/2000/svg" viewBox="0 0 206.01 87"><defs><style>.cls-1{fill:#fff;}.cls-2{fill:#31ba82;}</style></defs><g id="Layer_1-2"><g><path class="cls-2" d="M180.76,87H24.25C10.86,87,0,76.14,0,62.75V24.25C0,10.86,10.86,0,24.25,0H206.01s-1,62.75-1,62.75c0,13.39-10.86,24.25-24.25,24.25Z"/><g><path class="cls-1" d="M63.18,58.35h-4.86v-12.28c0-1.55-.35-2.76-1.05-3.61-.7-.85-1.79-1.28-3.26-1.28-.98,0-1.78,.21-2.39,.62-.61,.41-1.17,1.05-1.69,1.9,.05,.34,.1,.65,.14,.95,.04,.3,.06,.59,.06,.87v12.82h-4.86v-12.28c0-1.55-.39-2.76-1.17-3.61-.78-.85-1.83-1.28-3.15-1.28-.67,0-1.29,.12-1.85,.37-.56,.25-1.04,.59-1.46,1.03-.41,.44-.73,.96-.95,1.55-.22,.6-.33,1.24-.33,1.94v12.28h-4.86v-21.1h4.86v2.1c.36-.57,.97-1.11,1.83-1.63,.85-.52,1.83-.78,2.91-.78,1.32,0,2.54,.23,3.65,.68,1.11,.45,2.07,1.07,2.88,1.85,.91-.91,1.89-1.55,2.95-1.94,1.06-.39,2.25-.58,3.57-.58s2.53,.21,3.63,.64c1.1,.43,2.05,1.02,2.84,1.79,.79,.76,1.41,1.67,1.87,2.72,.45,1.05,.68,2.2,.68,3.44v12.82Z"/><path class="cls-1" d="M67.84,58.35V28.08h4.86v10.8c.88-.62,1.85-1.11,2.9-1.46,1.05-.35,2.16-.52,3.32-.52,1.58,0,3.04,.28,4.39,.83,1.35,.56,2.51,1.32,3.5,2.29,.98,.97,1.75,2.12,2.31,3.46,.56,1.33,.84,2.79,.84,4.37s-.28,3.03-.84,4.35c-.56,1.32-1.33,2.46-2.31,3.42-.98,.96-2.15,1.71-3.5,2.25-1.35,.54-2.81,.82-4.39,.82-1.17,0-2.31-.21-3.42-.62-1.11-.41-2.05-1.04-2.8-1.87v2.14h-4.86Zm11.07-17.33c-1.79,0-3.23,.54-4.33,1.61-1.1,1.08-1.73,2.52-1.88,4.33v1.79c.16,1.81,.78,3.24,1.88,4.27,1.1,1.04,2.54,1.55,4.33,1.55,1.94,0,3.46-.6,4.57-1.79,1.1-1.19,1.65-2.84,1.65-4.93s-.55-3.76-1.65-4.99c-1.1-1.23-2.62-1.85-4.57-1.85Z"/><path class="cls-1" d="M101.1,51.19c0,1.09,.27,1.94,.8,2.53,.53,.6,1.31,.9,2.35,.9,.75,0,1.44-.21,2.06-.64,.62-.43,1.11-.91,1.48-1.46l2.88,2.83c-.75,1.08-1.67,1.91-2.76,2.5s-2.25,.89-3.5,.89c-2.67,0-4.7-.68-6.08-2.04-1.39-1.36-2.08-3.24-2.08-5.65v-9.6h-3.58v-4.2h3.58v-8.39h4.86v8.39h6.41v4.2h-6.41v9.74Z"/><path class="cls-1" d="M127.91,41.29c-1.35,0-2.51,.12-3.48,.35-.97,.23-1.94,.69-2.89,1.36-.67,.44-1.2,1.04-1.57,1.81-.38,.76-.56,1.48-.56,2.16v11.38h-4.86v-21.1h4.86v2.64c1.27-1.17,2.61-1.95,4.02-2.35,1.41-.4,2.91-.6,4.49-.6v4.35Z"/><path class="cls-1" d="M150.22,55.01c-.36,.47-.84,.93-1.42,1.39s-1.27,.86-2.06,1.22c-.79,.35-1.68,.63-2.68,.84-1,.21-2.08,.31-3.24,.31-1.63,0-3.12-.27-4.45-.82-1.33-.54-2.49-1.3-3.46-2.27-.97-.97-1.72-2.12-2.25-3.44-.53-1.32-.8-2.77-.8-4.35s.25-3.04,.76-4.37c.51-1.33,1.22-2.49,2.16-3.48,.93-.98,2.06-1.75,3.38-2.31,1.32-.56,2.8-.83,4.43-.83s3.11,.28,4.43,.83c1.32,.56,2.45,1.33,3.38,2.31,.93,.98,1.65,2.14,2.16,3.48,.51,1.33,.76,2.79,.76,4.37v1.87h-16.4c.31,1.47,.96,2.65,1.96,3.55,1,.9,2.31,1.35,3.94,1.35,1.48,0,2.8-.25,3.96-.74,1.17-.49,2.06-1.11,2.68-1.87l2.76,2.96Zm-9.64-13.99c-1.55,0-2.8,.43-3.75,1.3-.95,.87-1.57,2-1.88,3.4h11.23c-.31-1.4-.93-2.53-1.86-3.4-.93-.87-2.18-1.3-3.73-1.3Z"/><path class="cls-1" d="M174.38,55.01c-.36,.47-.84,.93-1.42,1.39s-1.27,.86-2.06,1.22c-.79,.35-1.68,.63-2.68,.84-1,.21-2.08,.31-3.24,.31-1.63,0-3.12-.27-4.45-.82-1.33-.54-2.49-1.3-3.46-2.27-.97-.97-1.72-2.12-2.25-3.44-.53-1.32-.8-2.77-.8-4.35s.25-3.04,.76-4.37c.51-1.33,1.22-2.49,2.16-3.48,.93-.98,2.06-1.75,3.38-2.31,1.32-.56,2.8-.83,4.43-.83s3.11,.28,4.43,.83c1.32,.56,2.45,1.33,3.38,2.31,.93,.98,1.65,2.14,2.16,3.48,.51,1.33,.76,2.79,.76,4.37v1.87h-16.4c.31,1.47,.96,2.65,1.96,3.55,1,.9,2.31,1.35,3.94,1.35,1.48,0,2.8-.25,3.96-.74,1.17-.49,2.06-1.11,2.68-1.87l2.76,2.96Zm-9.64-13.99c-1.55,0-2.8,.43-3.75,1.3-.95,.87-1.57,2-1.88,3.4h11.23c-.31-1.4-.93-2.53-1.86-3.4-.93-.87-2.18-1.3-3.73-1.3Z"/></g></g></g></svg>